<svg width="25" height="24" viewBox="0 0 25 24" fill="none" xmlns="http://www.w3.org/2000/svg">
<g clip-path="url(#clip0_3781_34498)">
<path d="M19.6559 2.03027H5.33301C3.54134 2.03027 2.08301 3.37626 2.08301 5.02135V16.9856H13.5413V15.0016H4.16634V8.02239H20.8226V9.02938H22.9059V5.02135C22.9059 3.37626 21.4476 2.03027 19.6559 2.03027ZM20.8226 6.02834H4.16634V5.02135C4.16634 4.47298 4.68717 4.02432 5.33301 4.02432H19.6559C20.3018 4.02432 20.8226 4.47298 20.8226 5.02135V6.02834Z" fill="#4F008C"/>
<path d="M10.4056 10.9941H6.22852V12.9882H10.4056V10.9941Z" fill="#4F008C"/>
<path d="M20.7913 14.124L19.3538 8.88965L14.583 18.1121H17.4059L19.4059 23.1371L23.9788 14.124H20.7913ZM18.5934 16.7562H17.4684L19.1559 13.4361L19.7184 15.5298H21.1247L19.4372 18.9197L18.5934 16.7562Z" fill="#4F008C"/>
</g>
<defs>
<clipPath id="clip0_3781_34498">
<rect width="25" height="23.9286" fill="white" transform="translate(0 0.0361328)"/>
</clipPath>
</defs>
</svg>
