<svg width="24" height="23" viewBox="0 0 24 23" fill="none" xmlns="http://www.w3.org/2000/svg">
<path fill-rule="evenodd" clip-rule="evenodd" d="M16.7918 10.9386L18.1471 12.2939L23.6164 6.8246C23.9907 6.45035 23.9907 5.84356 23.6164 5.46931L18.1471 0L16.7918 1.35529L20.8235 5.38701H13.8203C11.3189 5.38701 9.32355 7.54869 9.32355 10.1787V13.0537H11.2402V10.1787C11.2402 8.57449 12.4133 7.30368 13.8203 7.30368H20.4268L16.7918 10.9386ZM13.1569 13.0537V10.1787H15.0736V13.0537C15.0736 15.6837 13.0782 17.8453 10.5768 17.8453H3.97037L7.60529 21.4803L6.25 22.8356L0.780689 17.3662C0.406437 16.992 0.406437 16.3852 0.780689 16.011L6.25 10.5416L7.60529 11.8969L3.57354 15.9287H10.5768C11.9838 15.9287 13.1569 14.6579 13.1569 13.0537Z" fill="white"/>
</svg>
