<svg width="24" height="25" viewBox="0 0 24 25" fill="none" xmlns="http://www.w3.org/2000/svg">
<path fill-rule="evenodd" clip-rule="evenodd" d="M2 9.5H0V5.5C0 3.84315 1.34315 2.5 3 2.5H21C22.6569 2.5 24 3.84315 24 5.5V9.5H22V19.5C22 21.1569 20.6569 22.5 19 22.5H2V9.5ZM4 9.39325V20.5H11V11.5H18V20.5H19C19.5523 20.5 20 20.0523 20 19.5V9.39325L18.7692 8.58517L17.0769 9.69628L15.3846 8.58517L13.6923 9.69628L12 8.58517L10.3077 9.69628L8.61539 8.58517L6.92308 9.69628L5.23077 8.58517L4 9.39325ZM16 20.5H13V13.5H16V20.5ZM22 5.5C22 4.94772 21.5523 4.5 21 4.5H3C2.44772 4.5 2 4.94772 2 5.5V7.5H3.23952L5.23077 6.19261L6.92308 7.30372L8.61539 6.19261L10.3077 7.30372L12 6.19261L13.6923 7.30372L15.3846 6.19261L17.0769 7.30372L18.7692 6.19261L20.7605 7.5H22V5.5ZM9 18.5H6V16.5H9V18.5Z" fill="white"/>
</svg>
